HIERARCHY
ROOT Hips
{
	OFFSET 0.000000 71.427986 0.000000
	CHANNELS 6 Xposition Yposition Zposition Xrotation Yrotation Zrotation
	JOINT Pelvis
	{
		OFFSET 0.000000 0.000000 0.000000
		CHANNELS 3 Xrotation Yrotation Zrotation
		JOINT LeftUpLeg
		{
			OFFSET 6.797100 -2.508499 -1.318700
			CHANNELS 3 Xrotation Yrotation Zrotation
			JOINT LeftLeg
			{
				OFFSET 0.069008 -29.241863 0.690200
				CHANNELS 3 Xrotation Yrotation Zrotation
				JOINT LeftFoot
				{
					OFFSET -0.069008 -29.568123 -0.266800
					CHANNELS 3 Xrotation Yrotation Zrotation
					JOINT LeftToeBase
					{
						OFFSET 3.145500 -8.631000 16.059900
						CHANNELS 3 Xrotation Yrotation Zrotation
						End Site
						{
							OFFSET 0.000000 18.501587 0.000000
						}
					}
				}
			}
			JOINT Left_ShortSleeve
			{
				OFFSET 0.265923 -10.480953 1.153800
				CHANNELS 3 Xrotation Yrotation Zrotation
				End Site
				{
					OFFSET 1.725763 19.823879 0.000000
				}
			}
		}
		JOINT RightUpLeg
		{
			OFFSET -6.797100 -2.508499 -1.318700
			CHANNELS 3 Xrotation Yrotation Zrotation
			JOINT RightLeg
			{
				OFFSET -0.082453 -29.241932 0.688000
				CHANNELS 3 Xrotation Yrotation Zrotation
				JOINT RightFoot
				{
					OFFSET 0.082453 -29.568058 -0.264600
					CHANNELS 3 Xrotation Yrotation Zrotation
					JOINT RightToeBase
					{
						OFFSET -3.115300 -8.682800 16.113400
						CHANNELS 3 Xrotation Yrotation Zrotation
						End Site
						{
							OFFSET 0.000000 18.567114 0.000000
						}
					}
				}
			}
			JOINT Right_ShortSleeve
			{
				OFFSET -0.265923 -10.480953 1.153800
				CHANNELS 3 Xrotation Yrotation Zrotation
				End Site
				{
					OFFSET -1.725766 19.823910 0.000000
				}
			}
		}
	}
	JOINT Spine
	{
		OFFSET 0.000000 13.368103 0.470500
		CHANNELS 3 Xrotation Yrotation Zrotation
		JOINT Spine1
		{
			OFFSET 0.147000 13.837402 0.538800
			CHANNELS 3 Xrotation Yrotation Zrotation
			JOINT Spine2
			{
				OFFSET 0.168000 16.242897 -1.435500
				CHANNELS 3 Xrotation Yrotation Zrotation
				JOINT Neck
				{
					OFFSET 0.217200 18.631500 -1.679100
					CHANNELS 3 Xrotation Yrotation Zrotation
					JOINT Head
					{
						OFFSET 0.000000 6.599396 1.385900
						CHANNELS 3 Xrotation Yrotation Zrotation
						JOINT Hat
						{
							OFFSET -0.532200 27.220596 -10.096100
							CHANNELS 3 Xrotation Yrotation Zrotation
							End Site
							{
								OFFSET 0.000000 22.029861 0.000000
							}
						}
						JOINT HairD
						{
							OFFSET -10.777400 17.437393 -1.325900
							CHANNELS 3 Xrotation Yrotation Zrotation
							JOINT HairD1
							{
								OFFSET -3.290299 -11.051193 1.062200
								CHANNELS 3 Xrotation Yrotation Zrotation
								End Site
								{
									OFFSET 0.000000 11.579437 0.000000
								}
							}
						}
						JOINT HairB
						{
							OFFSET -10.777400 17.437393 1.467900
							CHANNELS 3 Xrotation Yrotation Zrotation
							JOINT HairB1
							{
								OFFSET -1.561200 -12.956299 3.590200
								CHANNELS 3 Xrotation Yrotation Zrotation
								End Site
								{
									OFFSET 0.000000 13.534866 0.000000
								}
							}
						}
						JOINT HairA
						{
							OFFSET 9.713100 17.437393 1.467900
							CHANNELS 3 Xrotation Yrotation Zrotation
							JOINT HairA1
							{
								OFFSET 1.561200 -12.956299 3.590200
								CHANNELS 3 Xrotation Yrotation Zrotation
								End Site
								{
									OFFSET 0.000000 13.534866 0.000000
								}
							}
						}
						JOINT HairC
						{
							OFFSET 9.713100 17.437393 -1.325900
							CHANNELS 3 Xrotation Yrotation Zrotation
							JOINT HairC1
							{
								OFFSET 3.290300 -11.051193 1.062200
								CHANNELS 3 Xrotation Yrotation Zrotation
								End Site
								{
									OFFSET 0.000000 11.579437 0.000000
								}
							}
						}
					}
				}
				JOINT LeftShoulder
				{
					OFFSET 5.101800 15.108002 -2.763700
					CHANNELS 3 Xrotation Yrotation Zrotation
					JOINT LeftArm
					{
						OFFSET 9.825497 2.506317 -1.597400
						CHANNELS 3 Xrotation Yrotation Zrotation
						JOINT LeftForeArm
						{
							OFFSET 21.966244 0.000000 0.000000
							CHANNELS 3 Xrotation Yrotation Zrotation
							JOINT LeftHand
							{
								OFFSET 33.879036 0.000000 0.000000
								CHANNELS 3 Xrotation Yrotation Zrotation
								JOINT LeftHandThumb1
								{
									OFFSET 6.715286 -2.359680 3.363841
									CHANNELS 3 Xrotation Yrotation Zrotation
									JOINT LeftHandThumb2
									{
										OFFSET 2.507072 -1.447464 1.447461
										CHANNELS 3 Xrotation Yrotation Zrotation
										JOINT LeftHandThumb3
										{
											OFFSET 2.898338 -1.673355 1.673357
											CHANNELS 3 Xrotation Yrotation Zrotation
											End Site
											{
												OFFSET -0.295959 3.727692 -0.131651
											}
										}
									}
								}
								JOINT LeftHandIndex1
								{
									OFFSET 14.190811 -0.254547 3.840278
									CHANNELS 3 Xrotation Yrotation Zrotation
									JOINT LeftHandIndex2
									{
										OFFSET 3.551727 0.000000 -0.000000
										CHANNELS 3 Xrotation Yrotation Zrotation
										JOINT LeftHandIndex3
										{
											OFFSET 2.894196 0.000000 0.000000
											CHANNELS 3 Xrotation Yrotation Zrotation
											End Site
											{
												OFFSET -1.000603 2.690872 0.366626
											}
										}
									}
								}
								JOINT LeftHandMiddle1
								{
									OFFSET 13.776489 0.000000 0.000000
									CHANNELS 3 Xrotation Yrotation Zrotation
									JOINT LeftHandMiddle2
									{
										OFFSET 3.438232 0.000000 0.000000
										CHANNELS 3 Xrotation Yrotation Zrotation
										JOINT LeftHandMiddle3
										{
											OFFSET 3.691551 0.000000 0.000000
											CHANNELS 3 Xrotation Yrotation Zrotation
											End Site
											{
												OFFSET -1.082298 3.499527 0.457670
											}
										}
									}
								}
								JOINT LeftHandRing1
								{
									OFFSET 13.966164 -0.268127 -3.067488
									CHANNELS 3 Xrotation Yrotation Zrotation
									JOINT LeftHandRing2
									{
										OFFSET 3.162567 0.000000 0.000000
										CHANNELS 3 Xrotation Yrotation Zrotation
										JOINT LeftHandRing3
										{
											OFFSET 3.324348 0.000000 0.000000
											CHANNELS 3 Xrotation Yrotation Zrotation
											End Site
											{
												OFFSET -0.861900 3.184998 0.405154
											}
										}
									}
								}
								JOINT LeftHandPinky1
								{
									OFFSET 13.131393 -0.168503 -5.746925
									CHANNELS 3 Xrotation Yrotation Zrotation
									JOINT LeftHandPinky2
									{
										OFFSET 2.849182 0.000000 0.000000
										CHANNELS 3 Xrotation Yrotation Zrotation
										JOINT LeftHandPinky3
										{
											OFFSET 2.805038 0.000000 0.000000
											CHANNELS 3 Xrotation Yrotation Zrotation
											End Site
											{
												OFFSET -0.882500 2.642609 0.325652
											}
										}
									}
								}
							}
							JOINT Left_Sleeve
							{
								OFFSET 6.592125 -0.646545 0.805568
								CHANNELS 3 Xrotation Yrotation Zrotation
								End Site
								{
									OFFSET -0.000179 20.275787 -0.000000
								}
							}
						}
					}
				}
				JOINT RightShoulder
				{
					OFFSET -5.731700 15.108002 -2.763700
					CHANNELS 3 Xrotation Yrotation Zrotation
					JOINT RightArm
					{
						OFFSET -9.825497 2.506317 -1.597400
						CHANNELS 3 Xrotation Yrotation Zrotation
						JOINT RightForeArm
						{
							OFFSET -21.966242 0.000000 0.000000
							CHANNELS 3 Xrotation Yrotation Zrotation
							JOINT RightHand
							{
								OFFSET -33.879032 0.000000 0.000000
								CHANNELS 3 Xrotation Yrotation Zrotation
								JOINT RightHandThumb1
								{
									OFFSET -6.715286 -2.359680 3.363841
									CHANNELS 3 Xrotation Yrotation Zrotation
									JOINT RightHandThumb2
									{
										OFFSET -2.507072 -1.447464 1.447461
										CHANNELS 3 Xrotation Yrotation Zrotation
										JOINT RightHandThumb3
										{
											OFFSET -2.898338 -1.673355 1.673357
											CHANNELS 3 Xrotation Yrotation Zrotation
											End Site
											{
												OFFSET 0.295959 3.727692 -0.131651
											}
										}
									}
								}
								JOINT RightHandIndex1
								{
									OFFSET -14.190811 -0.254547 3.840278
									CHANNELS 3 Xrotation Yrotation Zrotation
									JOINT RightHandIndex2
									{
										OFFSET -3.551727 0.000000 -0.000000
										CHANNELS 3 Xrotation Yrotation Zrotation
										JOINT RightHandIndex3
										{
											OFFSET -2.894196 0.000000 0.000000
											CHANNELS 3 Xrotation Yrotation Zrotation
											End Site
											{
												OFFSET 1.000603 2.690872 0.366626
											}
										}
									}
								}
								JOINT RightHandMiddle1
								{
									OFFSET -13.776489 0.000000 0.000000
									CHANNELS 3 Xrotation Yrotation Zrotation
									JOINT RightHandMiddle2
									{
										OFFSET -3.438232 0.000000 0.000000
										CHANNELS 3 Xrotation Yrotation Zrotation
										JOINT RightHandMiddle3
										{
											OFFSET -3.691551 0.000000 0.000000
											CHANNELS 3 Xrotation Yrotation Zrotation
											End Site
											{
												OFFSET 1.082298 3.499527 0.457670
											}
										}
									}
								}
								JOINT RightHandRing1
								{
									OFFSET -13.966164 -0.268127 -3.067488
									CHANNELS 3 Xrotation Yrotation Zrotation
									JOINT RightHandRing2
									{
										OFFSET -3.162567 0.000000 0.000000
										CHANNELS 3 Xrotation Yrotation Zrotation
										JOINT RightHandRing3
										{
											OFFSET -3.324348 0.000000 0.000000
											CHANNELS 3 Xrotation Yrotation Zrotation
											End Site
											{
												OFFSET 0.861900 3.184998 0.405154
											}
										}
									}
								}
								JOINT RightHandPinky1
								{
									OFFSET -13.131393 -0.168503 -5.746925
									CHANNELS 3 Xrotation Yrotation Zrotation
									JOINT RightHandPinky2
									{
										OFFSET -2.849182 0.000000 0.000000
										CHANNELS 3 Xrotation Yrotation Zrotation
										JOINT RightHandPinky3
										{
											OFFSET -2.805038 0.000000 0.000000
											CHANNELS 3 Xrotation Yrotation Zrotation
											End Site
											{
												OFFSET 0.882500 2.642609 0.325652
											}
										}
									}
								}
							}
							JOINT Right_Sleeve
							{
								OFFSET -6.592125 -0.646545 0.805568
								CHANNELS 3 Xrotation Yrotation Zrotation
								End Site
								{
									OFFSET 0.000179 20.275787 -0.000000
								}
							}
						}
					}
				}
				JOINT Bind_Right_JacketString
				{
					OFFSET -3.534800 11.969597 7.200700
					CHANNELS 3 Xrotation Yrotation Zrotation
					JOINT Bind_Right_JacketString1
					{
						OFFSET -0.319900 -6.102600 2.794100
						CHANNELS 3 Xrotation Yrotation Zrotation
						End Site
						{
							OFFSET 0.000000 6.719452 0.000000
						}
					}
				}
				JOINT Bind_Left_JacketString
				{
					OFFSET 2.904800 11.969597 7.200700
					CHANNELS 3 Xrotation Yrotation Zrotation
					JOINT Bind_Left_JacketString1
					{
						OFFSET 0.364800 -5.904503 3.186800
						CHANNELS 3 Xrotation Yrotation Zrotation
						End Site
						{
							OFFSET 0.000000 6.719513 0.000000
						}
					}
				}
				JOINT HairE
				{
					OFFSET 5.915200 17.612701 -11.592200
					CHANNELS 3 Xrotation Yrotation Zrotation
					JOINT HairE1
					{
						OFFSET 0.289200 -7.171898 -1.284500
						CHANNELS 3 Xrotation Yrotation Zrotation
						End Site
						{
							OFFSET 0.000000 7.291756 0.000000
						}
					}
				}
				JOINT HairF
				{
					OFFSET -0.864800 17.612701 -11.592200
					CHANNELS 3 Xrotation Yrotation Zrotation
					JOINT HairF1
					{
						OFFSET 0.000000 -14.087097 -2.127501
						CHANNELS 3 Xrotation Yrotation Zrotation
						End Site
						{
							OFFSET 0.000000 14.246841 0.000000
						}
					}
				}
				JOINT HairG
				{
					OFFSET -8.087700 17.612701 -11.592200
					CHANNELS 3 Xrotation Yrotation Zrotation
					JOINT HairG1
					{
						OFFSET -0.293600 -6.081398 -0.910100
						CHANNELS 3 Xrotation Yrotation Zrotation
						End Site
						{
							OFFSET 0.000000 6.156120 0.000000
						}
					}
				}
			}
		}
	}
	JOINT Pouch
	{
		OFFSET 0.000000 4.394501 10.847300
		CHANNELS 3 Xrotation Yrotation Zrotation
		End Site
		{
			OFFSET 0.000000 21.880577 0.000000
		}
	}
	JOINT Bag
	{
		OFFSET -13.229000 4.813004 -0.593300
		CHANNELS 3 Xrotation Yrotation Zrotation
		End Site
		{
			OFFSET 0.000000 21.880577 0.000000
		}
	}
	JOINT OccupyGuyFacialAnim_Joint
	{
		OFFSET 1.000000 -70.206398 -1.655000
		CHANNELS 3 Xrotation Yrotation Zrotation
		End Site
		{
			OFFSET 0.000000 21.880577 0.000000
		}
	}
}
MOTION
Frames: 5
Frame Time: 0.016667
0.013340 64.567345 0.099789 9.540974 -61.607746 10.158363 -0.000000 0.000000 0.000000 -34.030021 13.174132 22.630278 36.645150 -7.061429 1.214781 -8.817791 -1.953541 -15.288982 0.000000 -0.000003 0.000000 -0.000000 0.000000 0.000003 -29.116731 -21.189349 -31.055173 35.640064 3.720360 -4.158991 -13.966018 0.510989 21.623530 -0.000000 -0.000000 0.000000 -0.000001 -0.000000 0.000000 15.063692 -0.338017 -4.297657 5.872399 0.563939 -2.798215 5.868718 0.648188 -2.860165 -3.632881 1.437142 3.747499 -20.005957 54.836758 2.407374 -0.000000 -0.000000 -0.000000 -0.000000 -0.000000 -0.000000 -0.000000 -0.000000 0.000000 -0.000000 -0.000000 -0.000001 -0.000000 -0.000000 -0.000001 -0.000000 -0.000000 -0.000001 -0.000000 -0.000000 -0.000001 -0.000000 -0.000000 -0.000000 -0.000000 -0.000000 -0.000000 1.828105 -3.192689 -12.271568 -39.387413 26.350501 -34.911102 0.429353 -46.808482 0.416169 -10.315055 -0.130716 0.363023 40.109955 -15.297120 -0.360509 5.639817 28.097921 11.338847 0.000000 -0.000000 0.000001 6.882261 2.840086 -61.140397 8.247989 7.640047 -89.897878 0.000000 -0.000000 -0.000002 -2.345505 4.688878 -62.655204 8.754154 9.897076 -87.051294 0.000004 0.000001 -0.000003 -9.042453 10.045635 -60.766171 8.524083 9.508837 -66.893042 -0.000002 0.000001 -0.000001 -17.946906 14.755015 -51.485850 8.868450 8.667048 -84.811989 -0.000003 0.000001 -0.000002 0.000001 0.000000 0.000002 0.632612 7.257342 8.700394 7.936011 -9.680160 53.429892 -22.867441 36.194696 17.955459 -27.369917 10.432888 -17.813552 -2.346189 -6.100551 10.731439 2.364066 -23.806320 -8.771057 0.000000 0.000000 0.000001 -0.054756 0.532100 0.738736 0.019781 -0.087300 5.078505 0.000001 -0.000003 0.000002 0.348254 -5.918521 2.583828 1.432603 -4.204236 24.052089 0.000003 -0.000001 -0.000003 1.205817 -11.756062 4.154790 1.794841 -3.771887 26.865400 0.000001 0.000000 -0.000002 2.126201 -19.166868 11.319994 3.354773 -2.122233 18.828530 -0.000000 0.000000 0.000000 0.000003 -0.000001 -0.000001 -0.000000 0.000002 -0.000000 -0.000001 0.000002 0.000001 -0.000000 0.000002 -0.000000 -0.000000 0.000002 -0.000000 -0.000000 0.000002 -0.000000 -0.000001 0.000002 0.000001 -0.000000 0.000002 -0.000000 -0.000000 0.000002 -0.000000 -0.000000 0.000002 -0.000000 -0.000001 0.000002 0.000001 -0.000000 0.000000 0.000000 -0.000000 0.000000 0.000000 -0.000000 0.000000 0.000000 
0.246518 64.334869 -0.604332 9.951004 -55.353619 8.075886 -0.000000 -0.000001 -0.000000 -38.072352 9.547754 22.992944 36.892618 -8.335908 1.396018 -7.185921 -4.650820 -14.945326 -0.000000 0.000000 -0.000000 0.000002 -0.000003 0.000000 -29.172926 -21.081275 -29.813482 40.325782 0.045393 -2.278733 -15.404319 -0.063139 20.649521 0.000000 -0.000000 0.000000 -0.000000 -0.000000 0.000003 18.427398 -0.466999 -3.491834 7.295533 -0.352594 -0.796537 7.297473 -0.185247 -0.836845 -9.419008 1.041044 2.964137 -33.847139 49.164443 3.507834 -0.000000 0.000000 -0.000000 -0.000000 0.000000 -0.000000 -0.000000 0.000000 -0.000000 -0.000000 0.000000 -0.000000 0.000000 0.000000 -0.000000 -0.000000 0.000000 -0.000000 0.000000 0.000000 -0.000000 -0.000000 0.000000 -0.000000 -0.000000 0.000000 -0.000000 3.590636 -8.212479 -8.338656 -17.336429 15.897248 -30.473753 -15.109900 -56.231984 -14.869706 -11.534133 1.944490 -6.382527 40.109951 -15.297122 -0.360505 5.639820 28.097925 11.338847 -0.000001 0.000001 -0.000003 6.882257 2.840085 -61.140397 8.247989 7.640041 -89.897878 0.000004 0.000001 0.000002 -2.345510 4.688878 -62.655204 8.754150 9.897076 -87.051294 0.000001 -0.000001 -0.000001 -9.042454 10.045633 -60.766171 8.524083 9.508835 -66.893035 0.000002 -0.000001 -0.000001 -17.946906 14.755017 -51.485850 8.868458 8.667050 -84.811989 -0.000002 -0.000001 0.000001 0.000002 -0.000001 0.000002 2.195469 10.570684 6.739746 12.334684 -2.089136 49.300613 -23.008773 37.026797 18.727875 -25.845444 16.676411 -17.494116 0.214167 -4.319360 5.919520 1.314349 -24.654515 -5.837889 -0.000000 -0.000002 -0.000003 0.333201 0.054687 1.470551 -0.415191 -0.423081 6.838800 -0.000001 0.000000 0.000002 -0.032237 -5.717576 3.568901 1.219211 -4.302294 24.290253 -0.000005 -0.000001 0.000001 0.521328 -11.018091 4.548200 2.135397 -3.822176 27.589390 0.000001 -0.000001 0.000001 0.964453 -17.509383 12.312429 4.696308 -2.397681 20.330888 0.000001 -0.000000 -0.000001 0.000001 0.000000 0.000002 -0.000003 -0.000002 0.000001 -0.000002 0.000001 -0.000002 -0.000003 -0.000002 -0.000000 -0.000003 -0.000002 -0.000000 -0.000003 -0.000002 0.000001 -0.000002 0.000001 -0.000002 -0.000003 -0.000002 -0.000000 -0.000003 -0.000002 -0.000000 -0.000003 -0.000002 0.000001 -0.000002 0.000001 -0.000002 -0.000000 -0.000001 -0.000000 -0.000000 -0.000001 -0.000000 -0.000000 -0.000001 -0.000000 
-0.028001 64.096474 -0.815844 8.515299 -43.334303 5.855690 -0.000000 -0.000001 0.000000 -41.336240 6.009661 19.429124 35.685293 -13.801687 0.940437 -4.446939 -7.012679 -13.140162 0.000000 0.000002 0.000000 -0.000003 0.000000 -0.000004 -25.561959 -23.076658 -30.803829 42.783800 -6.129399 0.340865 -16.333004 -1.249331 23.984523 0.000000 0.000000 -0.000000 -0.000001 -0.000001 0.000003 19.043735 -0.380582 -1.593552 8.434700 -1.248272 0.996155 8.432949 -1.053495 0.978030 -4.999489 -0.762668 5.645547 -37.843254 41.961021 5.245529 -0.000000 0.000000 -0.000000 -0.000000 0.000000 -0.000000 -0.000000 0.000000 -0.000000 -0.000000 0.000000 -0.000000 -0.000000 0.000000 0.000000 -0.000000 0.000000 -0.000000 -0.000000 0.000000 0.000000 -0.000000 0.000000 -0.000000 -0.000000 0.000000 -0.000000 3.416887 -8.568160 -4.408954 -14.803031 11.945515 -33.781740 -16.458838 -59.708851 -14.596273 -9.671801 4.965323 -21.142601 40.109955 -15.297124 -0.360508 5.639816 28.097925 11.338853 -0.000001 0.000000 -0.000005 6.882263 2.840084 -61.140397 8.247989 7.640046 -89.897878 0.000002 0.000001 0.000005 -2.345504 4.688879 -62.655204 8.754152 9.897074 -87.051294 0.000002 -0.000001 -0.000001 -9.042449 10.045635 -60.766171 8.524083 9.508837 -66.893035 0.000002 0.000003 -0.000000 -17.946904 14.755015 -51.485850 8.868450 8.667049 -84.811982 -0.000001 -0.000000 0.000001 0.000001 0.000000 -0.000003 2.138316 11.266881 6.137823 17.411421 3.777402 45.935952 -16.048079 34.606793 15.226638 -24.851898 19.175855 -10.594056 3.146373 -2.974239 1.047982 0.338251 -25.670407 -2.901103 0.000001 0.000001 0.000003 0.732171 -0.412275 2.206439 -0.830859 -0.784086 8.596221 -0.000001 0.000000 0.000004 -0.419549 -5.531671 4.555019 1.000268 -4.405251 24.527537 0.000000 -0.000000 -0.000001 -0.173216 -10.295270 4.954422 2.478525 -3.867645 28.313813 0.000005 0.000000 -0.000001 -0.259744 -15.908912 13.341555 6.053408 -2.603407 21.859127 0.000002 -0.000000 0.000000 -0.000001 0.000002 0.000000 -0.000003 -0.000000 0.000001 -0.000002 -0.000003 0.000002 -0.000003 -0.000000 0.000001 -0.000003 -0.000000 0.000001 -0.000003 -0.000000 0.000001 -0.000002 -0.000003 0.000002 -0.000003 -0.000000 0.000001 -0.000003 -0.000000 0.000001 -0.000003 -0.000000 0.000001 -0.000002 -0.000003 0.000002 -0.000000 -0.000001 0.000000 -0.000000 -0.000001 0.000000 -0.000000 -0.000001 0.000000 
-0.761095 64.096313 -0.570874 5.156306 -29.711740 5.609125 -0.000000 0.000000 0.000000 -40.476094 6.363951 12.892245 31.207162 -19.428410 -0.059818 -0.351956 -11.661664 -11.123189 0.000000 0.000002 0.000000 -0.000001 -0.000001 -0.000001 -19.973037 -24.723511 -32.520064 46.792957 -12.727073 1.687120 -19.391593 -2.798874 25.101341 -0.000000 -0.000000 0.000000 0.000001 -0.000002 -0.000001 17.946657 0.234047 -1.617154 7.663520 -0.055110 1.868093 7.656336 0.145389 1.807647 11.921188 -3.328149 12.513454 -29.858216 34.396556 5.825759 -0.000000 0.000000 -0.000002 -0.000000 0.000000 -0.000002 -0.000000 0.000000 -0.000002 -0.000000 0.000000 -0.000001 -0.000000 0.000000 0.000000 -0.000000 0.000000 -0.000001 -0.000000 0.000000 0.000000 -0.000000 0.000000 -0.000002 -0.000000 0.000000 -0.000002 1.265628 -7.131535 -5.657120 -23.592611 7.588129 -38.951319 11.776959 -59.937116 11.769770 -8.770869 10.933199 -13.361117 40.109951 -15.297120 -0.360501 5.639820 28.097925 11.338856 -0.000000 0.000001 -0.000001 6.882262 2.840082 -61.140397 8.247987 7.640042 -89.897878 0.000001 0.000003 0.000000 -2.345506 4.688877 -62.655204 8.754151 9.897080 -87.051294 -0.000002 0.000000 -0.000003 -9.042453 10.045632 -60.766171 8.524081 9.508837 -66.893035 -0.000000 0.000003 -0.000002 -17.946904 14.755012 -51.485857 8.868453 8.667050 -84.811982 0.000002 -0.000001 -0.000001 0.000001 0.000001 -0.000001 0.254902 10.476043 11.937813 21.048094 3.074646 42.497734 -10.393997 28.226102 14.523730 -24.135640 14.464047 8.084074 6.401480 -2.095825 -3.851024 -0.551812 -26.850018 0.038765 -0.000001 -0.000001 -0.000000 1.142048 -0.868719 2.949722 -1.226177 -1.169345 10.346311 -0.000000 -0.000001 0.000002 -0.813166 -5.361014 5.543583 0.782487 -4.510072 24.763261 -0.000002 0.000001 -0.000001 -0.877460 -9.587934 5.372635 2.822590 -3.905265 29.040069 0.000002 0.000000 0.000001 -1.545729 -14.365775 14.409167 7.422744 -2.738224 23.406261 -0.000002 0.000000 0.000001 0.000000 0.000001 -0.000000 0.000001 -0.000001 0.000002 -0.000000 0.000001 0.000001 0.000001 -0.000001 0.000001 0.000001 -0.000001 0.000001 0.000001 -0.000001 0.000002 -0.000000 0.000001 0.000002 0.000001 -0.000001 0.000001 0.000001 -0.000001 0.000001 0.000001 -0.000001 0.000002 -0.000000 0.000001 0.000002 -0.000000 0.000000 0.000000 -0.000000 0.000000 0.000000 -0.000000 0.000000 0.000000 
-1.741365 64.530174 0.124588 -1.117836 -17.644506 4.423256 0.000000 -0.000000 -0.000000 -34.329060 9.615501 8.373277 25.424339 -26.537054 -1.324518 3.980058 -17.165807 -9.095482 0.000000 0.000003 0.000000 0.000001 0.000001 -0.000000 -9.277524 -24.432116 -28.298674 51.192206 -21.439619 0.349206 -20.365008 -3.738175 24.627707 -0.000001 0.000000 -0.000000 0.000001 0.000002 -0.000002 16.768965 1.680616 -1.675715 5.284548 2.633934 2.560246 5.269071 2.814642 2.432382 37.491397 -0.604653 24.738081 -18.056891 27.309687 9.709666 -0.000000 -0.000002 0.000001 -0.000000 -0.000002 0.000001 -0.000000 -0.000002 0.000000 -0.000000 -0.000002 -0.000001 0.000003 -0.000003 0.000001 -0.000000 -0.000002 -0.000001 0.000003 -0.000003 0.000001 -0.000000 -0.000002 0.000001 -0.000000 -0.000002 0.000001 0.907825 -6.380195 -5.024939 -28.312107 3.762129 -48.592933 23.186807 -54.716522 21.547978 -5.821157 5.298346 15.915306 40.109955 -15.297120 -0.360508 5.639819 28.097921 11.338846 0.000003 0.000004 -0.000001 6.882263 2.840086 -61.140397 8.247987 7.640044 -89.897878 0.000001 0.000001 -0.000002 -2.345508 4.688880 -62.655204 8.754150 9.897076 -87.051294 0.000001 0.000004 -0.000001 -9.042458 10.045635 -60.766171 8.524087 9.508837 -66.893042 -0.000000 0.000002 0.000003 -17.946904 14.755012 -51.485850 8.868448 8.667050 -84.811989 -0.000001 0.000001 -0.000001 0.000000 -0.000000 -0.000001 -0.419581 12.460901 21.415911 25.186314 -1.964547 37.765199 1.735753 22.440317 11.670351 -19.014509 6.084787 14.201882 9.931781 -1.720454 -8.735652 -1.344065 -28.183546 2.984587 -0.000000 0.000002 0.000001 1.562559 -1.314571 3.699299 -1.598027 -1.577354 12.093957 -0.000000 0.000000 -0.000005 -1.212827 -5.206018 6.532397 0.565728 -4.616808 25.000156 -0.000000 -0.000002 0.000001 -1.591819 -8.896301 5.803044 3.167411 -3.934990 29.767112 -0.000000 0.000001 0.000003 -2.893511 -12.882795 15.515123 8.801529 -2.801058 24.970545 -0.000001 -0.000001 0.000004 -0.000000 -0.000001 0.000000 0.000001 0.000000 -0.000001 -0.000001 -0.000000 -0.000000 0.000001 0.000000 -0.000000 0.000001 0.000000 -0.000000 0.000001 0.000000 -0.000001 -0.000001 -0.000000 -0.000000 0.000001 0.000000 -0.000000 0.000001 0.000000 -0.000000 0.000001 0.000000 -0.000001 -0.000001 -0.000000 -0.000000 0.000000 -0.000000 -0.000000 0.000000 -0.000000 -0.000000 0.000000 -0.000000 -0.000000 
